<svg width="14" height="8" viewBox="0 0 14 8" fill="none" xmlns="http://www.w3.org/2000/svg">
<path fill-rule="evenodd" clip-rule="evenodd" d="M0.227726 0.234651C0.0816102 0.386651 0 0.589309 0 0.800151C0 1.01099 0.0816102 1.21365 0.227726 1.36565L6.44973 7.76565C6.52092 7.83969 6.60633 7.8986 6.70084 7.93884C6.79535 7.97907 6.89701 7.99981 6.99973 7.99981C7.10244 7.99981 7.2041 7.97907 7.29861 7.93884C7.39312 7.8986 7.47853 7.83969 7.54973 7.76565L13.7717 1.36565C13.9178 1.21365 13.9995 1.01099 13.9995 0.800151C13.9995 0.589309 13.9178 0.386651 13.7717 0.234651C13.7005 0.160608 13.6151 0.101702 13.5206 0.0614653C13.4261 0.0212282 13.3244 0.000488281 13.2217 0.000488281C13.119 0.000488281 13.0173 0.0212282 12.9228 0.0614653C12.8283 0.101702 12.7429 0.160608 12.6717 0.234651L6.99973 6.06865L1.32773 0.234651C1.25653 0.160608 1.17112 0.101702 1.07661 0.0614653C0.982104 0.0212282 0.880444 0.000488281 0.777726 0.000488281C0.675009 0.000488281 0.573349 0.0212282 0.47884 0.0614653C0.384331 0.101702 0.29892 0.160608 0.227726 0.234651Z" fill="#6D6F73"/>
</svg>
