<svg width="14" height="8" viewBox="0 0 14 8" fill="none" xmlns="http://www.w3.org/2000/svg">
<path fill-rule="evenodd" clip-rule="evenodd" d="M0.227726 7.76535C0.0816102 7.61335 0 7.41069 0 7.19985C0 6.98901 0.0816102 6.78635 0.227726 6.63435L6.44973 0.23435C6.52092 0.160307 6.60633 0.101402 6.70084 0.0611649C6.79535 0.0209279 6.89701 0.00018692 6.99973 0.00018692C7.10244 0.00018692 7.2041 0.0209279 7.29861 0.0611649C7.39312 0.101402 7.47853 0.160307 7.54973 0.23435L13.7717 6.63435C13.9178 6.78635 13.9995 6.98901 13.9995 7.19985C13.9995 7.41069 13.9178 7.61335 13.7717 7.76535C13.7005 7.83939 13.6151 7.8983 13.5206 7.93853C13.4261 7.97877 13.3244 7.99951 13.2217 7.99951C13.119 7.99951 13.0173 7.97877 12.9228 7.93853C12.8283 7.8983 12.7429 7.83939 12.6717 7.76535L6.99973 1.93135L1.32773 7.76535C1.25653 7.83939 1.17112 7.8983 1.07661 7.93853C0.982104 7.97877 0.880444 7.99951 0.777726 7.99951C0.675009 7.99951 0.573349 7.97877 0.47884 7.93853C0.384331 7.8983 0.29892 7.83939 0.227726 7.76535Z" fill="#6D6F73"/>
</svg>
