<svg width="16" height="17" viewBox="0 0 16 17" fill="none" xmlns="http://www.w3.org/2000/svg">
<path d="M6 7.50006C6.19891 7.50006 6.38968 7.57908 6.53033 7.71973C6.67098 7.86038 6.75 8.05115 6.75 8.25006V11.7501C6.75 11.949 6.67098 12.1397 6.53033 12.2804C6.38968 12.421 6.19891 12.5001 6 12.5001C5.80109 12.5001 5.61032 12.421 5.46967 12.2804C5.32902 12.1397 5.25 11.949 5.25 11.7501V8.25006C5.25 8.05115 5.32902 7.86038 5.46967 7.71973C5.61032 7.57908 5.80109 7.50006 6 7.50006Z" fill="#00A296"/>
<path d="M10 7.50006C10.1989 7.50006 10.3897 7.57908 10.5303 7.71973C10.671 7.86038 10.75 8.05115 10.75 8.25006V11.7501C10.75 11.949 10.671 12.1397 10.5303 12.2804C10.3897 12.421 10.1989 12.5001 10 12.5001C9.80109 12.5001 9.61032 12.421 9.46967 12.2804C9.32902 12.1397 9.25 11.949 9.25 11.7501V8.25006C9.25 8.05115 9.32902 7.86038 9.46967 7.71973C9.61032 7.57908 9.80109 7.50006 10 7.50006Z" fill="#00A296"/>
<path fill-rule="evenodd" clip-rule="evenodd" d="M4.52488 0.829392C3.81448 1.37237 3.3045 2.13588 3.075 3.00007H0.75C0.551088 3.00007 0.360322 3.07909 0.21967 3.21974C0.0790175 3.36039 0 3.55116 0 3.75007C0 3.94899 0.0790175 4.13975 0.21967 4.2804C0.360322 4.42105 0.551088 4.50007 0.75 4.50007H1.5V13.2501C1.5 14.2446 1.89509 15.1985 2.59835 15.9017C3.30161 16.605 4.25544 17.0001 5.25 17.0001H10.75C11.2425 17.0001 11.7301 16.9031 12.1851 16.7146C12.64 16.5262 13.0534 16.2499 13.4017 15.9017C13.7499 15.5535 14.0261 15.1401 14.2145 14.6851C14.403 14.2302 14.5 13.7425 14.5 13.2501V4.50007H15.25C15.4489 4.50007 15.6397 4.42105 15.7803 4.2804C15.921 4.13975 16 3.94899 16 3.75007C16 3.55116 15.921 3.36039 15.7803 3.21974C15.6397 3.07909 15.4489 3.00007 15.25 3.00007H12.675C12.5019 2.15314 12.0416 1.39197 11.372 0.845318C10.7023 0.298667 9.86444 8.44296e-05 9 7.26717e-05H7C6.10587 -0.00529121 5.23528 0.286412 4.52488 0.829392ZM5.69891 1.91208C5.3183 2.18074 5.03043 2.56088 4.875 3.00007H11.122C10.9667 2.56137 10.6793 2.18157 10.2993 1.91294C9.9193 1.64432 9.46537 1.50008 9 1.50007H7C6.53412 1.49946 6.07952 1.64341 5.69891 1.91208ZM13 4.50007H3V13.2501C3 13.8468 3.23705 14.4191 3.65901 14.8411C4.08097 15.263 4.65326 15.5001 5.25 15.5001H10.75C11.3467 15.5001 11.919 15.263 12.341 14.8411C12.7629 14.4191 13 13.8468 13 13.2501V4.50007Z" fill="#00A296"/>
</svg>
