<svg width="24" height="24" viewBox="0 0 24 24" fill="none" xmlns="http://www.w3.org/2000/svg">
<g clip-path="url(#clip0_5003_544)">
<path d="M16.0002 12C16.0002 11.9015 15.9809 11.8039 15.9432 11.7129C15.9055 11.6218 15.8502 11.5391 15.7805 11.4694C15.7109 11.3998 15.6281 11.3445 15.5371 11.3068C15.4461 11.2691 15.3485 11.2497 15.25 11.2498H12.7496L12.7496 8.72354C12.7428 8.52933 12.6608 8.34536 12.521 8.2104C12.3812 8.07543 12.1944 8 12.0001 8C11.8058 8 11.619 8.07543 11.4792 8.2104C11.3394 8.34536 11.2574 8.52933 11.2506 8.72354L11.2506 11.2498H8.75024C8.65172 11.2498 8.55416 11.2692 8.46314 11.3069C8.37211 11.3446 8.28941 11.3998 8.21974 11.4695C8.15007 11.5392 8.09481 11.6219 8.05711 11.7129C8.0194 11.8039 8 11.9015 8 12C8 12.0985 8.0194 12.1961 8.05711 12.2871C8.09481 12.3781 8.15007 12.4608 8.21974 12.5305C8.28941 12.6002 8.37211 12.6554 8.46314 12.6931C8.55416 12.7308 8.65172 12.7502 8.75024 12.7502H11.2506L11.2506 15.2498C11.2506 15.3483 11.27 15.4458 11.3077 15.5369C11.3454 15.6279 11.4006 15.7106 11.4703 15.7803C11.54 15.8499 11.6227 15.9052 11.7137 15.9429C11.8047 15.9806 11.9023 16 12.0008 16C12.0993 16 12.1969 15.9806 12.2879 15.9429C12.3789 15.9052 12.4616 15.8499 12.5313 15.7803C12.601 15.7106 12.6562 15.6279 12.6939 15.5369C12.7316 15.4458 12.7511 15.3483 12.7511 15.2498L12.751 12.7502H15.2514C15.4501 12.7499 15.6406 12.6707 15.781 12.5301C15.9214 12.3894 16.0003 12.1988 16.0002 12Z" fill="#00A296"/>
</g>
<rect x="0.5" y="0.5" width="23" height="23" rx="11.5" stroke="#00A296"/>
<defs>
<clipPath id="clip0_5003_544">
<rect width="24" height="24" rx="12" fill="white"/>
</clipPath>
</defs>
</svg>
