<svg width="12" height="12" viewBox="0 0 12 12" fill="none" xmlns="http://www.w3.org/2000/svg">
<path d="M10.861 1.13865C10.5579 0.836745 10.1475 0.667236 9.71966 0.667236C9.29184 0.667236 8.88145 0.836745 8.57833 1.13865L1.32033 8.39865C1.11292 8.60504 0.948407 8.85043 0.836276 9.12069C0.724145 9.39094 0.666613 9.68072 0.666994 9.97332V10.8893C0.667523 11.0069 0.714605 11.1195 0.797939 11.2025C0.881273 11.2854 0.994073 11.332 1.11166 11.332H2.02699C2.31995 11.3328 2.61015 11.2754 2.88079 11.1633C3.15143 11.0511 3.39713 10.8864 3.60366 10.6787L10.859 3.42265C11.1616 3.11922 11.3315 2.70818 11.3315 2.27965C11.3315 1.85112 11.1616 1.44008 10.859 1.13665L10.861 1.13865ZM2.97833 10.0507C2.72683 10.3007 2.38695 10.4415 2.03233 10.4427H1.55566V9.97599C1.55543 9.80025 1.58995 9.6262 1.65722 9.46385C1.7245 9.3015 1.8232 9.15406 1.94766 9.02999L7.45699 3.52399L8.48299 4.54732L2.97833 10.0507ZM10.233 2.79332L9.11166 3.91199L8.08566 2.88799L9.20033 1.76865C9.33638 1.63286 9.52081 1.55668 9.71304 1.55687C9.90526 1.55706 10.0895 1.6336 10.2253 1.76965C10.3611 1.90571 10.4373 2.09013 10.4371 2.28236C10.4369 2.47458 10.3604 2.65886 10.2243 2.79465L10.233 2.79332Z" fill="#00A296"/>
</svg>
